<svg width="512" height="512" viewBox="0 0 512 512" fill="none" xmlns="http://www.w3.org/2000/svg">
<path d="M255.999 416.914C344.87 416.914 416.914 344.87 416.914 256C416.914 167.129 344.87 95.0857 255.999 95.0857C167.129 95.0857 95.085 167.129 95.085 256C95.085 344.87 167.129 416.914 255.999 416.914Z" fill="black"/>
<g clip-path="url(#clip0_220_13)">
<path d="M316.62 295.598C316.62 329.027 289.425 356.224 255.999 356.224C222.573 356.224 195.376 329.027 195.376 295.412C195.376 279.217 201.683 263.992 213.132 252.54L238.855 226.817C252.717 212.957 260.35 194.528 260.35 174.923V143.014H247.585V174.921C247.608 182.885 246.051 190.775 243.003 198.133C239.956 205.492 235.479 212.172 229.831 217.788L204.108 243.514C190.246 257.376 182.613 275.808 182.613 295.595C182.613 336.062 215.532 368.986 255.999 368.986C296.463 368.986 329.385 336.064 329.385 295.598H316.62Z" fill="white"/>
</g>
<path d="M57.5579 189.97L55.4605 196.198L6.04883 179.569L8.1462 173.339L26.41 179.487C25.0404 177.874 24.0767 175.932 23.519 173.661C22.9613 171.39 23.2045 168.702 24.2486 165.595C25.7407 161.159 28.0904 158.46 31.2977 157.497C34.5124 156.548 38.2116 156.778 42.4008 158.19L65.6237 166.005L63.5263 172.235L42.1558 165.041C40.2742 164.409 38.4749 163.992 36.7615 163.796C35.0463 163.599 33.4993 163.917 32.1188 164.747C30.7419 165.568 29.6557 167.161 28.8603 169.525C27.8472 172.537 28.0721 175.252 29.5368 177.669C31.0052 180.076 33.7115 181.943 37.652 183.27L57.5579 189.97Z" fill="black"/>
<path d="M93.8454 123.407C92.4959 125.188 90.8502 126.713 88.9101 127.982C86.9773 129.258 84.8159 130.121 82.4223 130.567C80.0196 131.006 77.4742 130.893 74.7862 130.227C72.0982 129.562 69.3645 128.176 66.5814 126.071C63.8002 123.964 61.7247 121.71 60.357 119.301C58.9782 116.888 58.1791 114.469 57.9579 112.044C57.7384 109.619 57.9762 107.301 58.6729 105.086C59.3677 102.872 60.3899 100.875 61.7394 99.0939C63.0888 97.3129 64.7419 95.7769 66.6984 94.4878C68.655 93.1986 70.831 92.33 73.2228 91.8857C75.6164 91.4395 78.1526 91.5639 80.837 92.2551C83.503 92.9499 86.2258 94.3506 89.007 96.4553C91.7883 98.5618 93.8747 100.802 95.2644 103.181C96.6486 105.569 97.455 107.977 97.6854 110.409C97.9048 112.834 97.6543 115.158 96.9357 117.383C96.2262 119.616 95.1949 121.624 93.8454 123.407ZM89.2447 119.921C90.3766 118.427 91.0678 116.67 91.3202 114.651C91.5908 112.629 91.2287 110.526 90.2358 108.341C89.2429 106.156 87.4198 104.06 84.7684 102.053C82.117 100.045 79.6045 98.858 77.2328 98.4941C74.8612 98.1303 72.7346 98.3497 70.8511 99.1506C68.986 99.9497 67.4866 101.094 66.3547 102.59C65.2539 104.046 64.5645 105.788 64.2866 107.82C64.0123 109.87 64.3707 111.985 65.3636 114.17C66.3565 116.356 68.1796 118.451 70.831 120.459C73.4824 122.467 75.9949 123.653 78.3666 124.017C80.7382 124.381 82.8685 124.149 84.7574 123.319C86.6482 122.509 88.1439 121.375 89.2447 119.921Z" fill="black"/>
<path d="M143.366 77.3175C141.528 78.5865 139.487 79.5209 137.245 80.1189C135.011 80.7278 132.687 80.8686 130.275 80.5431C127.856 80.2066 125.473 79.3033 123.129 77.8295C120.785 76.3557 118.621 74.1852 116.637 71.3143C114.655 68.4434 113.392 65.6512 112.845 62.9376C112.291 60.213 112.289 57.664 112.838 55.2924C113.388 52.9207 114.339 50.7941 115.694 48.9088C117.047 47.0236 118.643 45.4473 120.481 44.1783C122.319 42.9093 124.37 41.9676 126.632 41.355C128.894 40.7424 131.233 40.5998 133.645 40.9253C136.057 41.2508 138.428 42.1632 140.76 43.6608C143.075 45.1548 145.222 47.3381 147.204 50.2071C149.186 53.078 150.466 55.8592 151.044 58.5527C151.611 61.2535 151.623 63.7934 151.08 66.1742C150.53 68.5458 149.564 70.6743 148.184 72.565C146.811 74.4649 145.203 76.0485 143.366 77.3175ZM140.087 72.5687C141.628 71.5045 142.837 70.0508 143.708 68.2112C144.596 66.3753 144.913 64.2652 144.653 61.8789C144.393 59.4944 143.318 56.9326 141.429 54.1952C139.538 51.4578 137.525 49.5452 135.384 48.459C133.244 47.371 131.156 46.9138 129.117 47.0839C127.095 47.2576 125.314 47.8775 123.772 48.9417C122.271 49.9785 121.07 51.4194 120.17 53.2626C119.267 55.1223 118.945 57.2453 119.205 59.6316C119.464 62.016 120.54 64.5778 122.43 67.3152C124.321 70.0526 126.334 71.9653 128.474 73.0533C130.613 74.1413 132.709 74.5874 134.76 74.39C136.81 74.2126 138.586 73.6037 140.087 72.5687Z" fill="black"/>
<path d="M195.597 50.6259L189.312 52.5514L174.034 2.70637L180.319 0.779053L189.354 30.2593L199.172 9.04237L206.702 6.73471L197.431 26.3041L219.915 43.1727L212.224 45.5297L194.684 32.2085L191.799 38.2355L195.597 50.6259Z" fill="black"/>
<path d="M264.976 40.9728C262.742 40.9728 260.545 40.6254 258.386 39.9305C256.226 39.2229 254.295 38.155 252.595 36.7268C250.907 35.2987 249.622 33.4939 248.74 31.3088L255.052 28.9627C255.636 31.2466 256.901 32.8978 258.85 33.9163C260.8 34.9349 262.84 35.4432 264.976 35.4432C266.54 35.4432 268.012 35.2073 269.39 34.7355C270.769 34.2638 271.897 33.5872 272.779 32.7058C273.66 31.8244 274.101 30.8133 274.101 29.6704C274.101 27.5346 273.256 26.0206 271.568 25.1282C269.88 24.2468 267.863 23.5703 265.517 23.0985L260.136 22.0178C258.262 21.5954 256.517 21.0066 254.904 20.2496C253.292 19.5054 251.988 18.4247 250.993 17.0094C250.013 15.6069 249.523 13.738 249.523 11.4048C249.523 9.05874 250.249 7.09119 251.701 5.50216C253.165 3.91314 255.027 2.70262 257.287 1.87062C259.545 1.03862 261.922 0.623535 264.418 0.623535C267.498 0.623535 270.401 1.26354 273.132 2.54171C275.862 3.81988 277.798 5.81302 278.941 8.51931L272.779 10.7721C272.097 9.20868 270.91 8.05302 269.222 7.30879C267.534 6.55176 265.777 6.17325 263.952 6.17325C261.979 6.17325 260.185 6.61394 258.572 7.49531C256.96 8.37668 256.151 9.64936 256.151 11.3115C256.151 12.9865 256.841 14.197 258.218 14.9431C259.595 15.7001 261.303 16.2907 263.338 16.7113L268.403 17.717C270.487 18.1394 272.468 18.741 274.342 19.5237C276.216 20.2935 277.749 21.4473 278.941 22.987C280.144 24.5266 280.748 26.6734 280.748 29.429C280.748 31.8738 279.991 33.9529 278.476 35.6663C276.962 37.3924 275.013 38.7072 272.629 39.6142C270.233 40.5211 267.682 40.9728 264.976 40.9728Z" fill="black"/>
<path d="M330.447 50.4539L325.705 49.1575C323.346 48.512 321.591 47.7769 320.441 46.9467C319.302 46.1202 318.678 44.9664 318.57 43.4816C318.46 41.9968 318.757 39.9744 319.457 37.4126L325.729 14.4585L319.406 12.7305L320.786 7.68366L327.108 9.41166L329.681 0L336.002 1.728L333.431 11.1397L340.65 13.1127L339.271 18.1595L332.05 16.1865L326.064 38.0983C325.542 40.0018 325.38 41.3275 325.575 42.0773C325.778 42.8398 326.784 43.4688 328.591 43.9625L331.968 44.8859L330.447 50.4539Z" fill="black"/>
<path d="M375.466 73.5725C373.555 72.415 371.867 70.9375 370.403 69.1382C368.932 67.348 367.852 65.2872 367.159 62.9521C366.473 60.6079 366.323 58.0644 366.707 55.3233C367.089 52.5805 368.185 49.7169 369.989 46.7327C371.796 43.7485 373.824 41.45 376.077 39.839C378.335 38.217 380.659 37.1711 383.047 36.7012C385.435 36.2312 387.767 36.2276 390.04 36.6884C392.314 37.151 394.406 37.9592 396.319 39.1167C398.23 40.2742 399.929 41.759 401.413 43.5729C402.898 45.3869 403.988 47.4586 404.679 49.7919C405.37 52.1252 405.511 54.6632 405.1 57.4042C404.685 60.127 403.575 62.9814 401.77 65.9638C399.963 68.948 397.95 71.2557 395.73 72.8868C393.499 74.5105 391.186 75.5638 388.793 76.0447C386.404 76.5147 384.066 76.5073 381.776 76.0209C379.481 75.5455 377.379 74.73 375.466 73.5725ZM378.456 68.6353C380.059 69.6063 381.879 70.1128 383.912 70.1531C385.951 70.2116 388.006 69.6337 390.076 68.4214C392.146 67.2072 394.042 65.1775 395.763 62.3304C397.486 59.4852 398.403 56.863 398.521 54.4657C398.636 52.0685 398.199 49.9766 397.206 48.1864C396.218 46.4127 394.924 45.0413 393.32 44.0721C391.758 43.1268 389.954 42.6221 387.904 42.5562C385.838 42.4959 383.769 43.0719 381.7 44.2861C379.63 45.5002 377.733 47.53 376.011 50.377C374.288 53.2223 373.37 55.8445 373.253 58.2399C373.138 60.6372 373.59 62.7309 374.61 64.5229C375.612 66.3185 376.894 67.69 378.456 68.6353Z" fill="black"/>
<path d="M421.731 110.44L417.282 105.602L445.779 79.4021L449.004 82.9111L445.139 89.3258C447.781 88.7333 450.414 88.8101 453.034 89.5507C455.657 90.2766 458.061 91.8254 460.246 94.2026L455.243 98.8014C455 98.5363 454.744 98.2583 454.474 97.9658C454.214 97.6823 453.943 97.4245 453.663 97.1941C450.39 94.1843 447.168 92.9555 444.001 93.5077C440.832 94.0599 437.49 95.9525 433.972 99.1872L421.731 110.44Z" fill="black"/>
<path d="M450.818 153.031L448.119 147.037L483.412 131.14L485.402 135.552L480.781 139.533C482.882 139.785 484.894 140.518 486.819 141.734C488.743 142.95 490.29 144.861 491.462 147.465C492.68 150.17 493.115 152.602 492.767 154.759C492.425 156.901 491.451 158.789 489.845 160.426C492.672 160.869 495.026 161.878 496.907 163.452C498.789 165.029 500.285 167.051 501.396 169.518C503.236 173.603 503.307 177.084 501.607 179.961C499.895 182.843 497.026 185.19 492.996 187.004L470.656 197.067L467.963 191.091L488.521 181.831C490.332 181.016 491.928 180.085 493.31 179.041C494.687 177.986 495.611 176.711 496.081 175.219C496.553 173.727 496.296 171.889 495.313 169.704C494.155 167.135 492.246 165.524 489.582 164.873C486.92 164.22 483.692 164.749 479.902 166.457L460.753 175.084L458.061 169.108L478.62 159.846C480.43 159.031 482.025 158.095 483.4 157.04C484.78 155.995 485.707 154.726 486.179 153.234C486.645 151.731 486.389 149.893 485.409 147.721C484.252 145.152 482.337 143.53 479.664 142.855C476.99 142.181 473.759 142.698 469.969 144.404L450.818 153.031Z" fill="black"/>
<path d="M21.7266 256.199C21.7266 252.899 24.4018 250.225 27.7005 250.225C31.0011 250.225 33.6744 252.901 33.6763 256.199C33.6763 259.5 31.0011 262.173 27.7005 262.175C24.3999 262.175 21.7266 259.5 21.7266 256.199Z" fill="black"/>
<path d="M490.947 256.199C490.947 252.899 493.622 250.225 496.921 250.225C500.222 250.225 502.895 252.901 502.897 256.199C502.897 259.5 500.222 262.173 496.921 262.175C493.621 262.175 490.947 259.5 490.947 256.199Z" fill="black"/>
<path d="M20.8698 334.778L18.7725 328.548L68.1841 311.919L70.2797 318.148L52.0159 324.295C54.0822 324.752 56.0241 325.716 57.8417 327.186C59.6593 328.656 61.0911 330.946 62.137 334.052C63.6291 338.489 63.3914 342.058 61.4202 344.764C59.4344 347.463 56.3459 349.517 52.1585 350.927L28.9357 358.744L26.8383 352.514L48.2088 345.32C50.0904 344.687 51.7745 343.93 53.2593 343.051C54.7441 342.171 55.7846 340.983 56.3825 339.485C56.9823 338 56.8854 336.075 56.0881 333.711C55.0751 330.699 53.2538 328.673 50.6243 327.632C47.9985 326.603 44.7162 326.753 40.7757 328.079L20.8698 334.778Z" fill="black"/>
<path d="M61.5005 413.486C60.151 411.705 59.1289 409.706 58.434 407.493C57.7282 405.286 57.4868 402.971 57.7062 400.549C57.9366 398.117 58.7357 395.697 60.1053 393.291C61.4749 390.885 63.5504 388.628 66.3298 386.522C69.111 384.415 71.8448 383.031 74.5328 382.365C77.2299 381.692 79.7771 381.579 82.1689 382.025C84.5625 382.471 86.7293 383.329 88.6713 384.598C90.6132 385.867 92.2589 387.394 93.6084 389.175C94.9579 390.956 95.9874 392.964 96.6969 395.196C97.4064 397.429 97.6532 399.759 97.4338 402.183C97.2144 404.608 96.408 407.016 95.0128 409.412C93.6212 411.789 91.5348 414.031 88.7536 416.135C85.9723 418.242 83.2496 419.641 80.5835 420.336C77.9101 421.021 75.3721 421.144 72.9712 420.707C70.5776 420.261 68.4089 419.39 66.4596 418.092C64.503 416.803 62.85 415.267 61.5005 413.486ZM66.103 410.002C67.2349 411.496 68.738 412.639 70.6141 413.429C72.4866 414.237 74.6096 414.46 76.9812 414.096C79.3529 413.733 81.8653 412.548 84.5168 410.54C87.1682 408.532 88.9913 406.435 89.9842 404.25C90.9771 402.064 91.3428 399.958 91.0832 397.93C90.8198 395.919 90.1232 394.165 88.9931 392.669C87.8923 391.214 86.4002 390.078 84.5186 389.261C82.6205 388.44 80.4866 388.211 78.1149 388.575C75.7433 388.939 73.2308 390.124 70.5794 392.132C67.928 394.139 66.1049 396.237 65.112 398.422C64.119 400.607 63.7643 402.719 64.0496 404.76C64.3165 406.799 65.0022 408.547 66.103 410.002Z" fill="black"/>
<path d="M120.311 468.469C118.474 467.2 116.877 465.622 115.524 463.736C114.164 461.862 113.209 459.739 112.659 457.368C112.116 454.987 112.118 452.438 112.664 449.724C113.211 447.009 114.476 444.216 116.459 441.347C118.441 438.477 120.604 436.306 122.948 434.832C125.3 433.349 127.682 432.444 130.094 432.119C132.506 431.793 134.834 431.928 137.076 432.526C139.318 433.124 141.358 434.059 143.198 435.328C145.036 436.597 146.643 438.182 148.016 440.08C149.389 441.98 150.351 444.114 150.902 446.486C151.452 448.857 151.439 451.397 150.865 454.109C150.287 456.803 149.007 459.584 147.025 462.455C145.043 465.325 142.894 467.507 140.581 469.001C138.257 470.488 135.885 471.4 133.464 471.735C131.052 472.06 128.719 471.912 126.465 471.29C124.203 470.678 122.151 469.738 120.311 468.469ZM123.592 463.718C125.133 464.782 126.92 465.399 128.95 465.561C130.981 465.742 133.068 465.289 135.205 464.203C137.345 463.115 139.358 461.202 141.249 458.465C143.139 455.727 144.215 453.165 144.472 450.781C144.732 448.397 144.421 446.279 143.538 444.434C142.658 442.605 141.448 441.157 139.906 440.093C138.405 439.056 136.633 438.444 134.591 438.255C132.532 438.071 130.433 438.52 128.293 439.608C126.154 440.696 124.14 442.609 122.25 445.347C120.359 448.084 119.284 450.646 119.026 453.03C118.766 455.415 119.092 457.534 120.001 459.383C120.893 461.237 122.091 462.681 123.592 463.718Z" fill="black"/>
<path d="M184.253 498.786L177.97 496.859L193.247 447.014L199.53 448.94L190.495 478.42L210.515 466.348L218.045 468.655L199.401 479.671L208.571 506.24L200.88 503.883L193.816 483.022L188.051 486.396L184.253 498.786Z" fill="black"/>
<path d="M264.979 512C262.744 512 260.548 511.652 258.387 510.957C256.227 510.25 254.296 509.182 252.596 507.754C250.908 506.326 249.623 504.521 248.741 502.336L255.053 499.99C255.637 502.274 256.904 503.925 258.851 504.943C260.801 505.962 262.841 506.47 264.979 506.47C266.542 506.47 268.014 506.234 269.391 505.762C270.77 505.291 271.898 504.614 272.78 503.733C273.661 502.851 274.102 501.84 274.102 500.697C274.102 498.561 273.257 497.047 271.569 496.155C269.881 495.274 267.864 494.597 265.518 494.125L260.137 493.045C258.263 492.622 256.518 492.033 254.905 491.276C253.293 490.532 251.989 489.452 250.994 488.036C250.014 486.634 249.524 484.765 249.524 482.432C249.524 480.086 250.25 478.118 251.702 476.529C253.166 474.94 255.028 473.73 257.288 472.899C259.546 472.067 261.923 471.652 264.419 471.65C267.499 471.65 270.402 472.29 273.133 473.569C275.863 474.847 277.799 476.84 278.942 479.546L272.78 481.799C272.098 480.236 270.911 479.08 269.223 478.336C267.535 477.579 265.778 477.2 263.953 477.2C261.98 477.2 260.186 477.641 258.572 478.522C256.959 479.404 256.151 480.676 256.152 482.338C256.152 484.013 256.842 485.224 258.219 485.97C259.597 486.727 261.303 487.318 263.339 487.738L268.404 488.744C270.488 489.166 272.469 489.768 274.343 490.551C276.217 491.32 277.75 492.474 278.942 494.014C280.145 495.553 280.749 497.7 280.749 500.456C280.749 502.901 279.992 504.98 278.477 506.693C276.963 508.419 275.014 509.734 272.631 510.641C270.236 511.548 267.685 512 264.979 512Z" fill="black"/>
<path d="M340.65 499.288L335.909 500.584C333.55 501.23 331.665 501.488 330.253 501.358C328.852 501.226 327.728 500.548 326.879 499.326C326.031 498.105 325.255 496.212 324.557 493.648L318.283 470.694L311.962 472.422L310.583 467.376L316.904 465.648L314.333 456.236L320.655 454.51L323.228 463.921L330.447 461.948L331.826 466.995L324.606 468.968L330.593 490.88C331.114 492.784 331.648 494.009 332.197 494.554C332.76 495.108 333.945 495.137 335.753 494.643L339.129 493.72L340.65 499.288Z" fill="black"/>
<path d="M396.473 473.538C394.562 474.695 392.469 475.504 390.196 475.966C387.928 476.44 385.6 476.44 383.212 475.97C380.817 475.489 378.495 474.443 376.242 472.832C373.989 471.221 371.961 468.922 370.155 465.938C368.348 462.954 367.254 460.09 366.87 457.349C366.481 454.596 366.633 452.052 367.324 449.719C368.015 447.386 369.094 445.317 370.559 443.518C372.023 441.719 373.711 440.24 375.622 439.082C377.533 437.925 379.638 437.109 381.932 436.634C384.227 436.158 386.57 436.156 388.958 436.626C391.346 437.096 393.659 438.149 395.895 439.784C398.115 441.415 400.128 443.723 401.935 446.707C403.742 449.691 404.852 452.546 405.265 455.269C405.669 457.999 405.528 460.535 404.844 462.879C404.153 465.212 403.062 467.28 401.569 469.083C400.085 470.897 398.386 472.382 396.473 473.538ZM393.485 468.599C395.089 467.628 396.382 466.251 397.362 464.468C398.36 462.689 398.801 460.601 398.686 458.205C398.571 455.808 397.651 453.188 395.928 450.341C394.206 447.495 392.31 445.464 390.241 444.251C388.171 443.037 386.114 442.454 384.068 442.501C382.04 442.554 380.223 443.065 378.619 444.036C377.057 444.981 375.774 446.345 374.764 448.132C373.751 449.935 373.303 452.034 373.419 454.431C373.534 456.828 374.454 459.449 376.176 462.296C377.899 465.141 379.795 467.173 381.865 468.385C383.935 469.599 385.999 470.17 388.06 470.098C390.117 470.043 391.926 469.544 393.485 468.599Z" fill="black"/>
<path d="M450.228 428.16L445.779 432.998L417.282 406.798L420.51 403.289L427.224 406.604C426.412 404.021 426.268 401.391 426.787 398.716C427.29 396.043 428.634 393.517 430.817 391.142L435.82 395.741C435.577 396.006 435.321 396.284 435.052 396.577C434.793 396.86 434.559 397.151 434.35 397.451C431.626 400.965 430.671 404.277 431.487 407.387C432.302 410.497 434.469 413.67 437.987 416.905L450.228 428.16Z" fill="black"/>
<path d="M486.113 375.269L483.414 381.261L448.119 365.363L450.107 360.949L456.15 361.772C454.947 360.031 454.163 358.038 453.799 355.791C453.435 353.543 453.841 351.119 455.013 348.517C456.231 345.812 457.765 343.874 459.612 342.705C461.442 341.542 463.503 341.019 465.79 341.138C464.249 338.728 463.444 336.296 463.379 333.844C463.313 331.392 463.836 328.931 464.947 326.464C466.787 322.379 469.349 320.018 472.629 319.386C475.921 318.758 479.582 319.353 483.61 321.167L505.951 331.231L503.258 337.207L482.699 327.947C480.889 327.131 479.134 326.552 477.438 326.208C475.736 325.877 474.171 326.029 472.739 326.665C471.309 327.302 470.102 328.711 469.118 330.895C467.961 333.464 468.021 335.962 469.296 338.388C470.572 340.815 473.105 342.881 476.897 344.591L496.048 353.216L493.356 359.192L472.796 349.93C470.985 349.115 469.228 348.54 467.528 348.211C465.831 347.869 464.267 348.016 462.835 348.65C461.4 349.297 460.193 350.707 459.215 352.88C458.057 355.449 458.112 357.958 459.378 360.408C460.643 362.856 463.172 364.935 466.964 366.643L486.113 375.269Z" fill="black"/>
<defs>
<clipPath id="clip0_220_13">
<rect width="225.972" height="225.972" fill="white" transform="translate(143.013 143.014)"/>
</clipPath>
</defs>
</svg>
